<mxfile host="65bd71144e">
    <diagram id="oqh_dH5F2A2GkGcUJ7IB" name="ページ1">
        <mxGraphModel dx="522" dy="569" grid="1" gridSize="10" guides="1" tooltips="1" connect="1" arrows="1" fold="1" page="1" pageScale="1" pageWidth="583" pageHeight="413" math="0" shadow="0">
            <root>
                <mxCell id="0"/>
                <mxCell id="1" parent="0"/>
                <mxCell id="4" value="修正後の Dockerfile" style="text;html=1;strokeColor=none;fillColor=none;align=center;verticalAlign=middle;whiteSpace=wrap;rounded=0;fontSize=18;fontStyle=1" parent="1" vertex="1">
                    <mxGeometry x="10" y="10" width="170" height="30" as="geometry"/>
                </mxCell>
                <mxCell id="5" value="&lt;div style=&quot;color: rgb(212, 212, 212); background-color: rgb(30, 30, 30); font-family: Menlo, Monaco, &amp;quot;Courier New&amp;quot;, monospace; line-height: 18px; font-size: 18px;&quot;&gt;&lt;div&gt;&lt;span style=&quot;color: #c586c0;&quot;&gt;FROM&lt;/span&gt; &lt;span style=&quot;color: #4ec9b0;&quot;&gt;fedora&lt;/span&gt;:&lt;span style=&quot;color: #9cdcfe;&quot;&gt;latest&lt;/span&gt;&lt;/div&gt;&lt;div&gt;&lt;span style=&quot;color: #c586c0;&quot;&gt;SHELL&lt;/span&gt; &lt;span style=&quot;color: #9cdcfe;&quot;&gt;[&lt;/span&gt; &lt;span style=&quot;color: #ce9178;&quot;&gt;&quot;/bin/bash&quot;&lt;/span&gt;&lt;span style=&quot;color: #9cdcfe;&quot;&gt;,&lt;/span&gt; &lt;span style=&quot;color: #ce9178;&quot;&gt;&quot;--posix&quot;&lt;/span&gt;&lt;span style=&quot;color: #9cdcfe;&quot;&gt;,&lt;/span&gt; &lt;span style=&quot;color: #ce9178;&quot;&gt;&quot;-c&quot;&lt;/span&gt; &lt;span style=&quot;color: #9cdcfe;&quot;&gt;]&lt;/span&gt;&lt;/div&gt;&lt;div&gt;&lt;span style=&quot;color: #c586c0;&quot;&gt;WORKDIR&lt;/span&gt; &lt;span style=&quot;color: #9cdcfe;&quot;&gt;/root&lt;/span&gt;&lt;/div&gt;&lt;div&gt;&lt;span style=&quot;color: #c586c0;&quot;&gt;ENV&lt;/span&gt; &lt;span style=&quot;color: #9cdcfe;&quot;&gt;URL&lt;/span&gt;=&lt;span style=&quot;color: #9cdcfe;&quot;&gt;http://example.com/man.tar.gz&lt;/span&gt;&lt;/div&gt;&lt;br&gt;&lt;div&gt;&lt;span style=&quot;color: #c586c0;&quot;&gt;RUN&lt;/span&gt; &lt;span style=&quot;color: #9cdcfe;&quot;&gt;set&lt;/span&gt; &lt;span style=&quot;color: #9cdcfe;&quot;&gt;-ex;&lt;/span&gt; &lt;span style=&quot;color: #569cd6;&quot;&gt;\&lt;/span&gt;&lt;/div&gt;&lt;div&gt;    &lt;span style=&quot;color: #9cdcfe;&quot;&gt;&amp;nbsp; &amp;nbsp; curl&lt;/span&gt; &lt;span style=&quot;color: #9cdcfe;&quot;&gt;-L&lt;/span&gt; &lt;span style=&quot;color: #ce9178;&quot;&gt;&quot;&lt;/span&gt;&lt;span style=&quot;color: #9cdcfe;&quot;&gt;${URL}&lt;/span&gt;&lt;span style=&quot;color: #ce9178;&quot;&gt;&quot;&lt;/span&gt;&lt;span style=&quot;color: #9cdcfe;&quot;&gt;;&lt;/span&gt; &lt;span style=&quot;color: #569cd6;&quot;&gt;\&lt;/span&gt;&lt;/div&gt;&lt;div&gt;    &lt;span style=&quot;color: #9cdcfe;&quot;&gt;&amp;nbsp; &amp;nbsp; tar&lt;/span&gt; &lt;span style=&quot;color: #9cdcfe;&quot;&gt;-xvf&lt;/span&gt; &lt;span style=&quot;color: #9cdcfe;&quot;&gt;man.tar.gz;&lt;/span&gt; &lt;span style=&quot;color: #569cd6;&quot;&gt;\&lt;/span&gt;&lt;/div&gt;&lt;div&gt;    &lt;span style=&quot;color: #9cdcfe;&quot;&gt;&amp;nbsp; &amp;nbsp; rm&lt;/span&gt; &lt;span style=&quot;color: #9cdcfe;&quot;&gt;-f&lt;/span&gt; &lt;span style=&quot;color: #9cdcfe;&quot;&gt;man.tar.gz;&lt;/span&gt;&lt;/div&gt;&lt;br&gt;&lt;div&gt;&lt;span style=&quot;color: #c586c0;&quot;&gt;WORKDIR&lt;/span&gt; &lt;span style=&quot;color: #9cdcfe;&quot;&gt;/root/man&lt;/span&gt;&lt;/div&gt;&lt;/div&gt;" style="text;html=1;strokeColor=none;fillColor=none;align=left;verticalAlign=middle;whiteSpace=wrap;rounded=0;" vertex="1" parent="1">
                    <mxGeometry y="40" width="420" height="200" as="geometry"/>
                </mxCell>
            </root>
        </mxGraphModel>
    </diagram>
</mxfile>